<?xml version="1.0" encoding="UTF-8"?>
<svg width="37px" height="36px" viewBox="0 0 37 36" version="1.1" xmlns="http://www.w3.org/2000/svg" xmlns:xlink="http://www.w3.org/1999/xlink">
    <title>F089926A-4772-4EAB-9FAF-47BB8E270162</title>
    <g id="Page-1" stroke="none" stroke-width="1" fill="none" fill-rule="evenodd">
        <g id="0432_스토리-스토리-등록-컴포넌트" transform="translate(-622.000000, -1385.000000)">
            <g id="텍스트" transform="translate(516.000000, 1368.000000)">
                <g id="Icn/component/h2" transform="translate(106.500000, 17.000000)">
                    <rect id="icon" fill="#FF0000" opacity="0" x="0" y="0" width="36" height="36"></rect>
                    <path d="M8.96,25.2 L8.96,18.8 L14.56,18.8 L14.56,25.2 L17.5,25.2 L17.5,10.4 L14.56,10.4 L14.56,16.22 L8.96,16.22 L8.96,10.4 L6,10.4 L6,25.2 L8.96,25.2 Z M30.2329412,25.2 L30.2329412,22.68 L25.4329412,22.68 C24.9729412,22.68 24.4929412,22.7 23.9529412,22.84 L27.0529412,19.72 C28.5329412,18.18 30.0129412,16.44 30.0729412,14.34 C30.0729412,11.78 28.1329412,10 25.3529412,10 C22.6129412,10 20.6329412,11.44 20.1529412,14.5 L22.7729412,14.94 C22.7929412,14.54 22.8329412,14.24 22.9329412,13.94 C23.2529412,13.06 24.0529412,12.3 25.1729412,12.3 C26.4729412,12.3 27.2929412,13.02 27.2929412,14.4 C27.2929412,15.94 26.3529412,17.14 24.8329412,18.66 L19.8129412,23.6 L19.8129412,25.2 L30.2329412,25.2 Z" id="H2" fill="#000000" fill-rule="nonzero"></path>
                </g>
            </g>
        </g>
    </g>
</svg>