<?xml version="1.0" encoding="UTF-8"?>
<svg width="36px" height="36px" viewBox="0 0 36 36" version="1.1" xmlns="http://www.w3.org/2000/svg" xmlns:xlink="http://www.w3.org/1999/xlink">
    <title>2DDAE6BD-C125-41A4-9C4E-A26769DD1BC7</title>
    <g id="Page-1" stroke="none" stroke-width="1" fill="none" fill-rule="evenodd">
        <g id="0432_스토리-스토리-등록-컴포넌트" transform="translate(-716.000000, -1587.000000)">
            <g id="기타" transform="translate(516.000000, 1570.000000)">
                <g id="Icn/component/code" transform="translate(200.000000, 17.000000)">
                    <rect id="Rectangle" fill="#FF0000" opacity="0" x="0" y="0" width="36" height="36"></rect>
                    <path d="M11.9039218,30 L11.9039218,28.4777663 L11.2582313,28.4777663 C9.84267895,28.4777663 9.47016519,27.9069286 9.47016519,26.2182006 C9.47016519,24.672182 9.61917069,23.3402275 9.61917069,21.532575 C9.61917069,19.7249224 9.09765142,18.868666 7.80627037,18.5594623 L7.80627037,18.4405377 C9.09765142,18.131334 9.61917069,17.2988625 9.61917069,15.467425 C9.61917069,13.6597725 9.47016519,12.327818 9.47016519,10.7817994 C9.47016519,9.09307135 9.84267895,8.49844881 11.2582313,8.49844881 L11.9039218,8.49844881 L11.9039218,7 L10.5132037,7 C8.20361838,7 7.16057984,7.85625646 7.16057984,10.63909 C7.16057984,12.5418821 7.40892235,13.8738366 7.40892235,15.6339193 C7.40892235,16.5615305 6.88740308,17.655636 5,17.655636 L5,19.3205791 C6.88740308,19.3205791 7.40892235,20.3671148 7.40892235,21.3898656 C7.40892235,23.1499483 7.16057984,24.4581179 7.16057984,26.36091 C7.16057984,29.1437435 8.20361838,30 10.5132037,30 L11.9039218,30 Z M25.4867963,30 C27.7963816,30 28.8642544,29.1437435 28.8642544,26.36091 C28.8642544,24.4581179 28.6159119,23.1499483 28.6159119,21.3898656 C28.6159119,20.3671148 29.1374312,19.3205791 31,19.3205791 L31,17.655636 C29.1374312,17.655636 28.6159119,16.5615305 28.6159119,15.6339193 C28.6159119,13.8738366 28.8642544,12.5418821 28.8642544,10.63909 C28.8642544,7.85625646 27.7963816,7 25.4867963,7 L24.0960782,7 L24.0960782,8.49844881 L24.7417687,8.49844881 C26.157321,8.49844881 26.5298348,9.09307135 26.5298348,10.7817994 C26.5298348,12.327818 26.4056636,13.6597725 26.4056636,15.467425 C26.4056636,17.2988625 26.9023486,18.131334 28.1937296,18.4405377 L28.1937296,18.5594623 C26.9023486,18.868666 26.4056636,19.7249224 26.4056636,21.532575 C26.4056636,23.3402275 26.5298348,24.672182 26.5298348,26.2182006 C26.5298348,27.9069286 26.157321,28.4777663 24.7417687,28.4777663 L24.0960782,28.4777663 L24.0960782,30 L25.4867963,30 Z" id="{}" fill="#000000" fill-rule="nonzero"></path>
                </g>
            </g>
        </g>
    </g>
</svg>