<?xml version="1.0" encoding="UTF-8"?>
<svg width="36px" height="36px" viewBox="0 0 36 36" version="1.1" xmlns="http://www.w3.org/2000/svg" xmlns:xlink="http://www.w3.org/1999/xlink">
    <title>03373BC0-E373-49E5-967D-F12C0D5F21B3</title>
    <g id="Page-1" stroke="none" stroke-width="1" fill="none" fill-rule="evenodd">
        <g id="0432_스토리-스토리-등록-컴포넌트" transform="translate(-622.000000, -1486.000000)">
            <g id="미디어" transform="translate(516.000000, 1469.000000)">
                <g id="Icn/component/img" transform="translate(106.000000, 17.000000)">
                    <rect id="Rectangle" fill-opacity="0.65" fill="#FF0000" opacity="0" x="0" y="0" width="36" height="36"></rect>
                    <g id="Group-7" transform="translate(6.000000, 6.000000)" stroke="#000000" stroke-width="1.4">
                        <path d="M19.3334,24 L4.6664,24 C2.1004,24 0.0004,21.683 0.0004,18.851 L0.0004,5.149 C0.0004,2.317 2.1004,0 4.6664,0 L19.3334,0 C21.9004,0 24.0004,2.317 24.0004,5.149 L24.0004,18.851 C24.0004,21.683 21.9004,24 19.3334,24 Z" id="Stroke-1"></path>
                        <path d="M7.77156117e-16,15.5 L6.229,11.051 C6.7,10.714 7.323,10.676 7.832,10.954 L17.269,16.101 C17.735,16.356 18.286,16.405 18.79,16.237 L24,14.5" id="Stroke-3"></path>
                        <path d="M20,6 C20,7.38083333 18.8808333,8.5 17.5,8.5 C16.1191667,8.5 15,7.38083333 15,6 C15,4.61916667 16.1191667,3.5 17.5,3.5 C18.8808333,3.5 20,4.61916667 20,6 Z" id="Stroke-5" stroke-linejoin="round"></path>
                    </g>
                </g>
            </g>
        </g>
    </g>
</svg>