<?xml version="1.0" encoding="UTF-8"?>
<svg width="36px" height="36px" viewBox="0 0 36 36" version="1.1" xmlns="http://www.w3.org/2000/svg" xmlns:xlink="http://www.w3.org/1999/xlink">
    <title>41471173-3D12-4D8F-A413-119256872C2E</title>
    <g id="Page-1" stroke="none" stroke-width="1" fill="none" fill-rule="evenodd">
        <g id="0432_스토리-스토리-등록-컴포넌트" transform="translate(-904.000000, -1486.000000)">
            <g id="미디어" transform="translate(516.000000, 1469.000000)">
                <g id="Icn/component/gallery" transform="translate(388.000000, 17.000000)">
                    <rect id="Rectangle" fill="#FF0000" opacity="0" x="0" y="0" width="36" height="36"></rect>
                    <g id="Group-15" transform="translate(4.000000, 4.000000)">
                        <path d="M23.3586,24 L8.6916,24 C6.1256,24 4.0256,21.683 4.0256,18.851 L4.0256,5.149 C4.0256,2.317 6.1256,0 8.6916,0 L23.3586,0 C25.9256,0 28.0256,2.317 28.0256,5.149 L28.0256,18.851 C28.0256,21.683 25.9256,24 23.3586,24" id="Fill-1" fill="#FFFFFF"></path>
                        <path d="M23.3586,24 L8.6916,24 C6.1256,24 4.0256,21.683 4.0256,18.851 L4.0256,5.149 C4.0256,2.317 6.1256,0 8.6916,0 L23.3586,0 C25.9256,0 28.0256,2.317 28.0256,5.149 L28.0256,18.851 C28.0256,21.683 25.9256,24 23.3586,24 Z" id="Stroke-3" stroke="#000000" stroke-width="1.4"></path>
                        <path d="M19.3334,27.9163 L4.6664,27.9163 C2.1004,27.9163 0.0004,25.5993 0.0004,22.7673 L0.0004,9.0653 C0.0004,6.2333 2.1004,3.9163 4.6664,3.9163 L19.3334,3.9163 C21.9004,3.9163 24.0004,6.2333 24.0004,9.0653 L24.0004,22.7673 C24.0004,25.5993 21.9004,27.9163 19.3334,27.9163" id="Fill-5" fill="#FFFFFF"></path>
                        <path d="M19.3334,27.9163 L4.6664,27.9163 C2.1004,27.9163 0.0004,25.5993 0.0004,22.7673 L0.0004,9.0653 C0.0004,6.2333 2.1004,3.9163 4.6664,3.9163 L19.3334,3.9163 C21.9004,3.9163 24.0004,6.2333 24.0004,9.0653 L24.0004,22.7673 C24.0004,25.5993 21.9004,27.9163 19.3334,27.9163 Z" id="Stroke-7" stroke="#FFFFFF" stroke-width="3"></path>
                        <path d="M19.3334,27.9163 L4.6664,27.9163 C2.1004,27.9163 0.0004,25.5993 0.0004,22.7673 L0.0004,9.0653 C0.0004,6.2333 2.1004,3.9163 4.6664,3.9163 L19.3334,3.9163 C21.9004,3.9163 24.0004,6.2333 24.0004,9.0653 L24.0004,22.7673 C24.0004,25.5993 21.9004,27.9163 19.3334,27.9163 Z" id="Stroke-9" stroke="#000000" stroke-width="1.4"></path>
                        <path d="M0,19.4163 L6.229,14.9673 C6.7,14.6303 7.323,14.5923 7.832,14.8703 L17.269,20.0173 C17.735,20.2723 18.286,20.3213 18.79,20.1533 L24,18.4163" id="Stroke-11" stroke="#000000" stroke-width="1.4"></path>
                        <path d="M20.5,9.9163 C20.5,11.2973 19.381,12.4163 18,12.4163 C16.619,12.4163 15.5,11.2973 15.5,9.9163 C15.5,8.5353 16.619,7.4163 18,7.4163 C19.381,7.4163 20.5,8.5353 20.5,9.9163 Z" id="Stroke-13" stroke="#000000" stroke-width="1.4" stroke-linejoin="round"></path>
                    </g>
                </g>
            </g>
        </g>
    </g>
</svg>