<?xml version="1.0" encoding="UTF-8"?>
<svg width="36px" height="36px" viewBox="0 0 36 36" version="1.1" xmlns="http://www.w3.org/2000/svg" xmlns:xlink="http://www.w3.org/1999/xlink">
    <title>B72B2608-6474-4323-B6B9-A50C855A8AEA</title>
    <g id="Page-1" stroke="none" stroke-width="1" fill="none" fill-rule="evenodd">
        <g id="0432_스토리-스토리-등록-컴포넌트" transform="translate(-998.000000, -1486.000000)">
            <g id="미디어" transform="translate(516.000000, 1469.000000)">
                <g id="Icn/component/video" transform="translate(482.000000, 17.000000)">
                    <rect id="Rectangle" fill="#FF0000" opacity="0" x="0" y="0" width="36" height="36"></rect>
                    <g id="Group-5" transform="translate(6.000000, 6.000000)" stroke="#000000" stroke-width="1.4">
                        <path d="M19.333,24 L4.666,24 C2.1,24 0,21.683 0,18.851 L0,5.149 C0,2.317 2.1,0 4.666,0 L19.333,0 C21.9,0 24,2.317 24,5.149 L24,18.851 C24,21.683 21.9,24 19.333,24 Z" id="Stroke-1"></path>
                        <path d="M15.2229,10.8648 L11.0769,8.1058 C10.1709,7.5018 8.9579,8.1518 8.9579,9.2408 L8.9579,14.7598 C8.9579,15.8478 10.1709,16.4978 11.0769,15.8948 L15.2229,13.1348 C16.0339,12.5958 16.0339,11.4048 15.2229,10.8648 Z" id="Stroke-3" stroke-linecap="round"></path>
                    </g>
                </g>
            </g>
        </g>
    </g>
</svg>