<?xml version="1.0" encoding="UTF-8"?>
<svg width="36px" height="36px" viewBox="0 0 36 36" version="1.1" xmlns="http://www.w3.org/2000/svg" xmlns:xlink="http://www.w3.org/1999/xlink">
    <title>0A31C60C-2D6C-4737-97D9-D6052C81FDA8</title>
    <g id="Page-1" stroke="none" stroke-width="1" fill="none" fill-rule="evenodd">
        <g id="0432_스토리-스토리-등록-컴포넌트" transform="translate(-716.000000, -1385.000000)">
            <g id="텍스트" transform="translate(516.000000, 1368.000000)">
                <g id="Icn/component/h3" transform="translate(200.000000, 17.000000)">
                    <rect id="icon" fill="#FF0000" opacity="0" x="0" y="0" width="36" height="36"></rect>
                    <path d="M8.96,25.2 L8.96,18.8 L14.56,18.8 L14.56,25.2 L17.5,25.2 L17.5,10.4 L14.56,10.4 L14.56,16.22 L8.96,16.22 L8.96,10.4 L6,10.4 L6,25.2 L8.96,25.2 Z M25.0129412,25.58 C27.8129412,25.58 30.2529412,23.96 30.3129412,20.9 C30.3129412,19.14 29.5729412,18 27.8129412,17.34 C29.0729412,16.72 30.0529412,15.72 30.0529412,14.02 C30.1129412,11.8 28.2529412,10.06 25.4529412,10 C22.6329412,10 20.7329412,11.4 20.1529412,14.46 C21.0329412,14.6 21.8929412,14.78 22.7529412,14.92 C23.0129412,13.48 23.5929412,12.36 25.2929412,12.36 C26.5929412,12.36 27.3729412,13.04 27.3529412,14.42 C27.3529412,15.7 26.7329412,16.54 24.0929412,16.6 L24.0929412,18.6 C27.2129412,18.6 27.5929412,19.56 27.5929412,20.96 C27.5929412,22.08 26.7329412,23.18 24.9729412,23.18 C23.5529412,23.18 22.4329412,21.76 22.1129412,20.48 L19.6729412,21.44 C20.4729412,24.06 21.9729412,25.58 25.0129412,25.58 Z" id="H3" fill="#000000" fill-rule="nonzero"></path>
                </g>
            </g>
        </g>
    </g>
</svg>