<svg width="30" height="30" xmlns="http://www.w3.org/2000/svg" xmlns:xlink="http://www.w3.org/1999/xlink">
    <defs>
        <path id="a" d="M0 0h19.182v20H0z"/>
    </defs>
    <g fill="none" fill-rule="evenodd">
        <path fill="#DDD" d="M0 0h30v30H0z"/>
        <g transform="translate(5 5)">
            <mask id="b" fill="#fff">
                <use xlink:href="#a"/>
            </mask>
            <path d="M9.59 13.5a3.5 3.5 0 1 1 0-7 3.5 3.5 0 0 1 0 7m8-3.5c0-.558-.057-1.102-.165-1.627l1.757-1.189a9.977 9.977 0 0 0-2.361-4.08l-1.913.93a7.984 7.984 0 0 0-2.81-1.627l-.15-2.116A10.009 10.009 0 0 0 9.59 0c-.813 0-1.6.108-2.357.291l-.151 2.116a7.984 7.984 0 0 0-2.81 1.627l-1.912-.93A9.977 9.977 0 0 0 0 7.184l1.757 1.189a8.067 8.067 0 0 0 0 3.254L0 12.816a9.977 9.977 0 0 0 2.36 4.08l1.914-.93a7.984 7.984 0 0 0 2.809 1.627l.15 2.116c.758.183 1.545.291 2.358.291.813 0 1.6-.108 2.357-.291l.15-2.116a7.984 7.984 0 0 0 2.81-1.627l1.913.93a9.977 9.977 0 0 0 2.36-4.08l-1.756-1.189A8.067 8.067 0 0 0 17.59 10" fill="#000" mask="url(#b)"/>
        </g>
    </g>
</svg>
