<?xml version="1.0" encoding="UTF-8"?>
<svg width="36px" height="36px" viewBox="0 0 36 36" version="1.1" xmlns="http://www.w3.org/2000/svg" xmlns:xlink="http://www.w3.org/1999/xlink">
    <title>64DBAC3E-967F-464A-8B24-A2F0F295FFED</title>
    <g id="Page-1" stroke="none" stroke-width="1" fill="none" fill-rule="evenodd">
        <g id="0432_스토리-스토리-등록-컴포넌트" transform="translate(-904.000000, -1385.000000)">
            <g id="텍스트" transform="translate(516.000000, 1368.000000)">
                <g id="Icn/component/&quot;" transform="translate(388.000000, 17.000000)">
                    <rect id="icon" fill="#FF0000" opacity="0" x="0" y="0" width="36" height="36"></rect>
                    <path d="M15.8137931,27 L15.8137931,18.1557093 L11.3448276,18.1557093 C11.5310345,15.4152249 13.0827586,13.4221453 15.937931,12.3010381 L15.937931,12.3010381 L16,12.3010381 L14.0137931,9 C9.29655172,10.4948097 7,14.1072664 7,19.899654 L7,19.899654 L7,27 L15.8137931,27 Z M28.8137931,27 L28.8137931,18.1557093 L24.3448276,18.1557093 C24.5310345,15.4152249 26.0827586,13.4221453 28.937931,12.3010381 L28.937931,12.3010381 L29,12.3010381 L27.0137931,9 C22.2965517,10.4948097 20,14.1072664 20,19.899654 L20,19.899654 L20,27 L28.8137931,27 Z" id="“" fill="#000000" fill-rule="nonzero" opacity="0.900219145"></path>
                </g>
            </g>
        </g>
    </g>
</svg>